<svg width="48" height="48" viewBox="0 0 48 48" fill="none" xmlns="http://www.w3.org/2000/svg">
<path d="M6.79858 48C6.02237 47.662 5.7219 47.061 5.75945 46.2097C5.80953 44.9202 5.77197 43.6307 5.77197 42.3036C17.966 42.3036 30.11 42.3036 42.3291 42.3036C42.3291 42.4413 42.3291 42.5916 42.3291 42.7418C42.3291 43.8936 42.2915 45.0579 42.3416 46.2097C42.3792 47.061 42.0787 47.6495 41.3025 48C29.797 48 18.3041 48 6.79858 48Z" fill="white"/>
<path d="M38.1101 39.4491C28.7205 39.4491 19.3934 39.4491 9.99121 39.4491C9.99121 39.2739 9.99121 39.1111 9.99121 38.9484C9.99121 34.3662 9.99121 29.7966 9.99121 25.2144C10.0037 18.4038 15.0241 12.5321 21.7596 11.4429C29.359 10.216 36.4576 15.1987 37.8973 22.7731C38.035 23.4992 38.1101 24.2629 38.1101 25.0016C38.1352 29.6839 38.1227 34.3787 38.1227 39.061C38.1101 39.1737 38.1101 39.2864 38.1101 39.4491Z" fill="white"/>
<path d="M6.87377 18.4413C6.61086 18.3412 6.33544 18.2786 6.11008 18.1408C4.55766 17.252 3.00522 16.3631 1.4528 15.4617C0.664065 14.9984 0.413676 14.1972 0.814302 13.4711C1.21493 12.7574 2.06627 12.5446 2.84248 12.9953C4.43247 13.9092 6.02245 14.8232 7.61243 15.7496C8.22589 16.1127 8.46375 16.7637 8.27596 17.4022C8.10068 17.9906 7.53731 18.3912 6.87377 18.4413Z" fill="white"/>
<path d="M11.2932 3.45541C11.819 3.45541 12.2321 3.68076 12.4951 4.11894C13.4465 5.74648 14.398 7.37402 15.3245 9.01409C15.7251 9.7277 15.4747 10.579 14.7987 10.9546C14.1101 11.3427 13.2963 11.1174 12.8706 10.3912C11.9317 8.78873 11.0052 7.19875 10.0913 5.58373C9.52791 4.59469 10.1915 3.45541 11.2932 3.45541Z" fill="white"/>
<path d="M38.2604 4.90767C38.1727 5.15806 38.1101 5.40845 37.9849 5.6338C37.0961 7.19875 36.1947 8.76369 35.2807 10.3286C34.8175 11.1174 34.0037 11.3552 33.2901 10.9546C32.5765 10.554 32.3762 9.70266 32.8144 8.92645C33.7283 7.33647 34.6422 5.74648 35.5687 4.15649C35.9192 3.55556 36.5828 3.31768 37.2213 3.50548C37.8222 3.66823 38.2228 4.24413 38.2604 4.90767Z" fill="white"/>
<path d="M41.3275 18.3787C40.5763 18.3787 40.0255 17.9781 39.8377 17.4147C39.6374 16.7762 39.8878 16.1127 40.4887 15.7621C41.9535 14.9108 43.4308 14.0595 44.8956 13.2207C45.0834 13.108 45.2712 12.9953 45.459 12.8952C46.135 12.5822 46.9238 12.8451 47.2868 13.4711C47.6499 14.1096 47.4997 14.9484 46.8612 15.3239C45.1961 16.3255 43.5059 17.2895 41.8158 18.241C41.628 18.3537 41.4026 18.3662 41.3275 18.3787Z" fill="white"/>
<path d="M25.3652 4.25665C25.3652 5.15806 25.3652 6.07199 25.3652 6.9734C25.3652 7.83725 24.7642 8.45071 23.9505 8.43819C23.1367 8.43819 22.5608 7.82473 22.5608 6.94836C22.5608 5.1205 22.5608 3.29265 22.5608 1.46479C22.5608 0.60094 23.1492 0 23.9755 0C24.7893 0 25.3652 0.613462 25.3652 1.48983C25.3652 2.41628 25.3652 3.34272 25.3652 4.25665Z" fill="white"/>
</svg>
