<svg width="48" height="48" viewBox="0 0 48 48" fill="none" xmlns="http://www.w3.org/2000/svg">
<g clip-path="url(#clip0_210_1311)">
<path d="M16.237 28.1651C14.4736 28.1651 12.7103 28.1522 10.9469 28.1651C10.1689 28.1651 9.53358 27.9188 9.1835 27.2056C8.83342 26.5055 9.01494 25.8831 9.46875 25.2607C15.5369 17.0403 21.579 8.81982 27.6471 0.599357C28.062 0.0418179 28.5288 -0.126744 29.0086 0.0936789C29.4753 0.314101 29.6569 0.767914 29.5142 1.41622C28.3732 6.73229 27.2322 12.0484 26.0912 17.3644C25.9486 18.0127 25.8189 18.661 25.6633 19.2964C25.5596 19.6983 25.6244 19.8539 26.1042 19.8539C29.7087 19.828 33.3133 19.8409 36.9178 19.8409C37.9681 19.8409 38.6423 20.3985 38.772 21.3709C38.8368 21.8636 38.6553 22.2785 38.3571 22.6675C35.6861 26.285 33.028 29.9026 30.37 33.5201C26.9599 38.149 23.5499 42.7778 20.1268 47.4197C19.7508 47.9253 19.3748 48.0939 18.8821 47.9513C18.3764 47.8087 18.1171 47.303 18.2468 46.6547C18.5968 44.9432 18.9729 43.2446 19.3359 41.5461C20.2565 37.2543 21.1771 32.9626 22.1106 28.6838C22.1884 28.3077 22.1495 28.1392 21.6957 28.1522C19.8934 28.1781 18.0652 28.1651 16.237 28.1651Z" fill="white"/>
</g>
<defs>
<clipPath id="clip0_210_1311">
<rect width="48" height="48" fill="white"/>
</clipPath>
</defs>
</svg>
