<svg width="48" height="48" viewBox="0 0 48 48" fill="none" xmlns="http://www.w3.org/2000/svg">
<g clip-path="url(#clip0_210_1141)">
<path d="M3.71856 11.145C3.08856 10.575 2.41356 10.02 1.84356 9.39003C0.178555 7.56003 -0.136445 4.78503 1.04856 2.73003C2.74356 -0.239973 6.85356 -0.899973 9.40356 1.41003C10.1386 2.07003 10.7536 2.85003 11.3686 3.52503C19.9036 -1.16997 28.2286 -1.15497 36.6286 3.58503C37.1386 3.07503 37.6936 2.52003 38.2486 1.96503C39.1636 1.03503 40.2736 0.450027 41.5636 0.210027C43.8586 -0.209973 46.1236 0.810027 47.2636 2.80503C48.4186 4.83003 48.2086 7.42503 46.6636 9.13503C45.9436 9.93003 45.1186 10.62 44.4286 11.28C45.1336 12.81 45.8536 14.13 46.3786 15.525C48.9736 22.605 48.4036 29.46 44.6986 36.03C44.4436 36.48 44.4886 36.705 44.8486 37.035C45.4186 37.56 45.9886 38.1 46.4836 38.7C47.8936 40.41 48.3136 42.345 47.5786 44.445C46.8736 46.44 45.3886 47.565 43.3336 47.91C41.4886 48.21 39.8836 47.625 38.5486 46.32C37.9036 45.69 37.2886 45.045 36.6736 44.43C28.2286 49.185 19.8436 49.2 11.3836 44.46C10.8586 45 10.3036 45.57 9.73355 46.125C7.78355 48 4.97856 48.435 2.80356 47.205C-0.196445 45.51 -0.841445 41.4 1.46856 38.805C2.05356 38.145 2.69856 37.53 3.32856 36.915C3.55356 36.705 3.55356 36.54 3.40356 36.285C0.838555 32.01 -0.256445 27.36 0.0585553 22.395C0.298555 18.6 1.42356 15.06 3.35856 11.775C3.44856 11.61 3.55356 11.445 3.71856 11.145ZM8.98355 24.015C9.01355 32.34 15.7936 39.075 24.0886 39.03C32.3686 39 39.0886 32.22 39.0586 23.94C39.0286 15.645 32.2636 8.92503 23.9836 8.94003C15.7186 8.97003 8.95355 15.765 8.98355 24.015ZM2.99856 4.83003C2.98356 5.91003 3.82356 6.79503 4.90356 6.82503C6.02856 6.85503 6.92856 6.01503 6.94356 4.90503C6.95856 3.79503 6.10356 2.91003 4.99356 2.89503C3.89856 2.89503 3.01356 3.75003 2.99856 4.83003ZM7.15356 42.825C7.15356 41.745 6.29856 40.875 5.21856 40.86C4.12356 40.845 3.22356 41.745 3.22356 42.84C3.22356 43.935 4.10856 44.805 5.21856 44.79C6.31356 44.775 7.15356 43.92 7.15356 42.825ZM42.9736 2.89503C41.8786 2.89503 40.9786 3.79503 40.9786 4.87503C40.9936 5.95503 41.8636 6.81003 42.9436 6.82503C44.0536 6.82503 44.9386 5.94003 44.9236 4.84503C44.9236 3.78003 44.0536 2.91003 42.9736 2.89503ZM42.7036 44.685C43.8136 44.685 44.6836 43.8 44.6686 42.705C44.6536 41.64 43.7686 40.755 42.7036 40.755C41.6386 40.755 40.7536 41.64 40.7386 42.705C40.7386 43.815 41.5936 44.685 42.7036 44.685Z" fill="white"/>
<path d="M31.9778 24.015C31.9628 28.425 28.4078 31.965 24.0128 31.95C19.6478 31.935 16.0928 28.38 16.0928 24.015C16.0778 19.62 19.6778 16.035 24.1028 16.05C28.4528 16.065 31.9778 19.62 31.9778 24.015Z" fill="white"/>
</g>
<defs>
<clipPath id="clip0_210_1141">
<rect width="48" height="48" fill="white"/>
</clipPath>
</defs>
</svg>
