<svg width="48" height="48" viewBox="0 0 48 48" fill="none" xmlns="http://www.w3.org/2000/svg">
<g clip-path="url(#clip0_333_1155)">
<path d="M23.5362 0C23.8512 0 24.1662 0 24.4812 0C25.7412 0.21 26.7012 0.915 27.5712 1.8C28.2762 2.535 29.0262 3.21 29.7612 3.93C30.1662 4.32 30.6312 4.47 31.1712 4.395C32.3412 4.23 33.5262 4.065 34.6962 3.885C37.2762 3.465 39.2712 4.815 39.7962 7.38C40.0362 8.55 40.2312 9.735 40.4262 10.935C40.5312 11.625 40.8462 12.105 41.4762 12.42C42.5562 12.96 43.6062 13.53 44.6562 14.1C46.8762 15.315 47.6262 17.595 46.5312 19.89C46.0212 20.97 45.4962 22.05 44.9412 23.13C44.6262 23.745 44.6412 24.3 44.9412 24.915C45.4662 25.935 45.9612 26.985 46.4712 28.02C47.6412 30.42 46.9062 32.715 44.5512 33.975C43.5012 34.53 42.4662 35.1 41.4012 35.64C40.8312 35.925 40.5312 36.36 40.4262 36.975C40.2462 38.115 40.0362 39.255 39.8412 40.395C39.4062 43.02 37.5312 44.475 34.8912 44.175C33.6912 44.04 32.5062 43.86 31.3212 43.665C30.6612 43.56 30.1362 43.695 29.6562 44.175C28.8012 45.03 27.9162 45.885 27.0312 46.725C25.2012 48.465 22.7862 48.465 20.9562 46.725C20.0562 45.855 19.1562 45 18.2562 44.115C17.8512 43.725 17.4012 43.56 16.8462 43.65C15.6612 43.83 14.4612 43.98 13.2762 44.16C10.7262 44.565 8.73118 43.2 8.22118 40.68C7.98118 39.48 7.77118 38.28 7.59118 37.08C7.48618 36.405 7.17118 35.94 6.55618 35.625C5.49118 35.1 4.45618 34.53 3.40618 33.96C1.11118 32.73 0.361178 30.435 1.50118 28.08C1.99618 27.045 2.49118 25.995 3.03118 24.975C3.36118 24.33 3.37618 23.745 3.04618 23.115C2.49118 22.065 1.99618 20.985 1.48618 19.92C0.391178 17.595 1.14118 15.3 3.36118 14.1C4.42618 13.515 5.50618 12.945 6.58618 12.39C7.17118 12.09 7.48618 11.655 7.57618 11.01C7.75618 9.855 7.96618 8.7 8.16118 7.545C8.62618 4.95 10.5162 3.525 13.1262 3.84C14.3262 3.99 15.5112 4.17 16.6962 4.35C17.3412 4.455 17.8512 4.305 18.3162 3.84C19.0062 3.135 19.7412 2.49 20.4312 1.785C21.3012 0.915 22.2612 0.21 23.5362 0ZM34.6212 14.94C34.5162 14.1 33.9012 13.485 33.1212 13.485C32.6412 13.485 32.3112 13.74 31.9812 14.055C26.0112 20.025 20.0412 26.01 14.0562 31.98C13.9512 32.085 13.8312 32.205 13.7412 32.325C13.4262 32.775 13.3962 33.255 13.6362 33.735C13.8762 34.215 14.2962 34.47 14.8362 34.485C15.3762 34.5 15.7362 34.2 16.0812 33.84C21.3462 28.575 26.6112 23.31 31.8762 18.03C32.5812 17.325 33.3012 16.635 33.9912 15.9C34.2612 15.66 34.4112 15.27 34.6212 14.94ZM29.5962 26.325C26.8362 26.295 24.5112 28.53 24.4662 31.275C24.4212 34.11 26.6862 36.45 29.5062 36.465C32.2662 36.48 34.5762 34.23 34.6062 31.485C34.6362 28.635 32.4162 26.355 29.5962 26.325ZM18.4512 21.69C21.2412 21.705 23.5212 19.44 23.5362 16.65C23.5512 13.86 21.2862 11.565 18.5112 11.55C15.7362 11.52 13.4262 13.8 13.4112 16.575C13.3812 19.395 15.6312 21.675 18.4512 21.69Z" fill="white"/>
<path d="M29.5357 33.675C28.2607 33.675 27.2407 32.67 27.2257 31.395C27.2107 30.12 28.2757 29.055 29.5507 29.07C30.8107 29.085 31.8457 30.135 31.8307 31.38C31.8307 32.655 30.8107 33.675 29.5357 33.675Z" fill="white"/>
<path d="M18.4799 14.3251C19.7549 14.3251 20.7749 15.3601 20.7599 16.6201C20.7599 17.8801 19.7099 18.9151 18.4649 18.9301C17.2049 18.9301 16.1249 17.8501 16.1549 16.5901C16.1849 15.3151 17.2049 14.3251 18.4799 14.3251Z" fill="white"/>
</g>
<defs>
<clipPath id="clip0_333_1155">
<rect width="48" height="48" fill="white"/>
</clipPath>
</defs>
</svg>
