<svg width="128" height="42" viewBox="0 0 128 42" fill="none" xmlns="http://www.w3.org/2000/svg">
<path d="M95.4603 7.94226C95.4603 7.94226 78.6979 12.1709 59.7829 12.3256C40.8679 12.4803 25.9111 11.634 5.86255 17.8619C12.7261 15.0164 23.336 10.0195 48.3255 9.55805C48.3255 9.55675 90.5388 9.71014 95.4603 7.94226Z" fill="black"/>
<path d="M125.256 11.7861C125.256 11.7861 120.104 14.4393 119.912 14.746C119.719 15.0541 119.028 15.1308 119.566 15.7457C120.104 16.3605 123.18 19.4751 123.449 20.051C123.718 20.6281 125.179 24.5877 116.182 27.8933C115.683 28.0467 109.377 29.3921 100.15 29.1621C96.6901 29.3544 112.529 29.8159 115.452 29.5845C118.374 29.3544 125.525 28.7773 127.87 21.7422C127.985 21.0116 128.447 19.8586 126.485 18.4742C125.101 17.6669 122.987 16.4749 122.564 15.9758C122.371 15.5923 121.065 15.5156 125.256 11.7861Z" fill="black"/>
<path d="M21.1067 15.8523L7.35229 19.8885C7.35359 19.8885 19.1178 21.4744 21.1067 15.8523Z" fill="black"/>
<path d="M80.7349 12.9015C80.7349 12.9015 87.809 12.479 89.9617 12.0552C92.1143 11.6328 101.111 9.32542 106.993 9.90258C107.839 10.1327 114.875 11.8628 116.489 10.7865C116.719 10.6708 117.104 10.1327 113.991 9.51781C110.377 8.74826 81.8892 1.69364 77.2174 2.09791C75.1414 2.04071 65.5649 1.58574 55.3034 5.61547C47.8068 8.32579 44.9808 9.24873 44.9808 9.24873C44.9808 9.24873 51.9016 5.44258 58.6481 3.19373C64.7603 1.40635 68.6821 -0.208136 77.0445 0.0219486C80.6205 0.426221 94.5751 2.52038 110.53 7.36515C113.721 8.40378 120.603 10.9789 126.024 7.01938C126.332 6.82699 126.332 6.82699 126.332 6.82699C126.332 6.82699 124.448 8.94195 123.026 9.97928C121.604 11.0179 119.181 13.0549 113.338 12.5934C112.877 12.5167 107.648 10.9399 106.649 10.9022C105.688 10.9022 102.534 10.5564 92.1169 12.9015C91.1537 13.0549 80.7349 12.9015 80.7349 12.9015Z" fill="black"/>
<path d="M2.34504 21.0129C2.34504 21.0129 2.9989 23.2813 4.65239 24.3186C5.80541 25.3572 7.11312 26.548 6.42027 27.779C5.9211 28.2781 4.4977 29.5469 0 29.8549C3.84514 29.8159 7.92036 29.6626 8.26614 27.5866C8.34284 26.7794 8.68861 24.7034 6.72835 23.9338C6.42027 23.7817 3.15359 22.5507 2.34504 21.0129Z" fill="black"/>
<path d="M79.3128 3.82812C79.3128 3.82812 79.3518 8.51821 69.8937 8.28812C70.8543 8.48051 76.6597 9.51784 78.9281 7.1728C79.2751 6.44225 79.851 6.13417 79.3128 3.82812Z" fill="black"/>
<path d="M46.6929 28.9268H41.8079L43.0649 24.1379H58.3843L57.1273 28.9268H52.2423L49.0406 41.0693H43.4912L46.6929 28.9268Z" fill="black"/>
<path d="M61.4183 35.7474C61.4898 36.8121 62.1541 37.5127 63.363 37.5127C64.2404 37.5127 65.0698 37.1501 65.9719 36.4481L68.4612 39.2299C66.991 40.5597 65.1894 41.3826 62.9119 41.3826C58.9758 41.3826 56.5566 39.0362 56.5566 35.5772C56.5566 33.4492 57.386 31.32 58.8562 29.8212C60.2315 28.4185 62.1047 27.5476 64.4289 27.5476C68.6978 27.5476 70.1199 30.4984 70.1199 33.2802C70.1199 34.1512 69.9782 34.9974 69.7403 35.7474H61.4183ZM61.7511 33.3283H65.4025C65.474 33.1346 65.4974 32.9409 65.4974 32.7473C65.4974 32.0219 64.9762 31.3446 64.0987 31.3446C63.6009 31.3446 63.0081 31.5383 62.5102 32.0466C62.2009 32.3612 61.9409 32.772 61.7511 33.3283Z" fill="black"/>
<path d="M71.6395 35.7721C71.6395 33.4739 72.4936 31.4421 73.9872 29.9186C75.434 28.4432 77.3786 27.5723 79.5833 27.5723C82.7135 27.5723 84.7283 29.4103 85.2275 31.8776L80.9586 33.6195C80.722 32.5795 80.176 32.0232 79.2986 32.0232C78.6824 32.0232 78.1599 32.2896 77.7569 32.7004C77.1408 33.3296 76.7612 34.3448 76.7612 35.3132C76.7612 36.3051 77.3773 36.9342 78.2314 36.9342C78.9905 36.9342 79.5586 36.5716 80.1994 35.8215L83.8275 38.2887C82.5471 40.1749 80.6739 41.4085 77.7101 41.4085C74.2471 41.4072 71.6395 39.3274 71.6395 35.7721Z" fill="black"/>
<path d="M89.6862 23.4126H95.0691L93.4572 29.5079C94.3113 28.4433 95.71 27.5489 97.3219 27.5489C99.6929 27.5489 101.021 29.1205 101.021 31.5877C101.021 32.265 100.927 33.015 100.713 33.8132L98.8168 41.0693H93.4338L95.1653 34.4904C95.2602 34.1512 95.307 33.7651 95.307 33.4986C95.307 32.7967 94.9508 32.3378 94.1683 32.3378C93.1011 32.3378 92.5317 33.0631 92.1521 34.4904L90.4207 41.0693H85.0377L89.6862 23.4126Z" fill="black"/>
<path d="M13.9325 35.5291H12.8028H12.5078L11.1818 40.4402H5.43494L10.0522 23.2501H16.7559C18.3431 23.2501 19.6534 23.4139 20.6855 23.7415C21.7163 24.0691 22.5184 24.5188 23.0916 25.0921C23.5661 25.5666 23.9106 26.1112 24.1225 26.7248C24.3357 27.3383 24.4423 27.9896 24.4423 28.6773C24.4423 29.4962 24.311 30.2605 24.0497 30.9729C23.7871 31.6852 23.362 32.3365 22.7732 32.9254C22.3962 33.3023 21.9542 33.6377 21.4473 33.9328C20.939 34.2279 20.3423 34.4892 19.6547 34.7179L22.0374 40.4402H15.8485L13.9325 35.5291ZM15.6756 31.4279C16.2489 31.4279 16.7403 31.3538 17.1484 31.2069C17.5579 31.06 17.8764 30.8715 18.1065 30.6427C18.4341 30.3151 18.5978 29.9226 18.5978 29.4637C18.5978 29.1036 18.4757 28.8007 18.23 28.5551C17.9024 28.2275 17.3369 28.0637 16.5349 28.0637H14.4966L13.588 31.4279H15.6756Z" fill="#F98607"/>
<path d="M24.0262 23.2515H30.3373L31.0744 32.902L37.0176 23.2515H43.4755L31.8595 40.5637H26.3583L24.0262 23.2515Z" fill="#F98607"/>
</svg>
