<svg width="39" height="18" viewBox="0 0 39 18" fill="none" xmlns="http://www.w3.org/2000/svg">
<path d="M8.93246 12.5291H7.80284H7.50776L6.18185 17.4402H0.434937L5.05222 0.250122H11.7559C13.3431 0.250122 14.6534 0.413907 15.6855 0.741485C16.7163 1.06906 17.5184 1.51883 18.0916 2.0921C18.5661 2.56656 18.9106 3.11123 19.1225 3.72478C19.3357 4.33834 19.4423 4.9896 19.4423 5.67726C19.4423 6.4962 19.311 7.26054 19.0497 7.9729C18.7871 8.68525 18.362 9.33651 17.7732 9.92537C17.3962 10.3023 16.9542 10.6377 16.4473 10.9328C15.939 11.2279 15.3423 11.4892 14.6547 11.7179L17.0374 17.4402H10.8485L8.93246 12.5291ZM10.6756 8.42787C11.2489 8.42787 11.7403 8.35377 12.1484 8.20688C12.5579 8.05999 12.8764 7.87151 13.1065 7.64272C13.4341 7.31514 13.5978 6.92257 13.5978 6.4637C13.5978 6.10362 13.4757 5.80075 13.23 5.55506C12.9024 5.22749 12.3369 5.06369 11.5349 5.06369H9.49662L8.58799 8.42787H10.6756Z" fill="#F98607"/>
<path d="M19.0263 0.251465H25.3374L26.0744 9.90202L32.0176 0.251465H38.4756L26.8596 17.5637H21.3583L19.0263 0.251465Z" fill="#F98607"/>
</svg>
